<svg width="534" height="265" xmlns="http://www.w3.org/2000/svg" xmlns:xlink="http://www.w3.org/1999/xlink" overflow="hidden"><defs><clipPath id="clip0"><rect x="373" y="228" width="534" height="265"/></clipPath></defs><g clip-path="url(#clip0)" transform="translate(-373 -228)"><rect x="587" y="246" width="14" height="38" fill="#00ADB5"/><path d="M572.343 246 591.616 246C596.799 246 601 250.201 601 255.384L601 463.657C601 468.817 596.817 473 591.657 473L572.384 473C567.201 473 563 468.799 563 463.616L563 255.343C563 250.183 567.183 246 572.343 246Z" fill="#00ADB5" fill-rule="evenodd"/><path d="M715 445.343 715 464.616C715 469.799 710.799 474 705.616 474L573.343 474C568.183 474 564 469.817 564 464.657L564 445.384C564 440.201 568.201 436 573.384 436L705.657 436C710.817 436 715 440.183 715 445.343Z" fill="#00ADB5" fill-rule="evenodd"/><path d="M715 255.343 715 274.616C715 279.799 710.799 284 705.616 284L626.343 284C621.183 284 617 279.817 617 274.657L617 255.384C617 250.201 621.201 246 626.384 246L705.657 246C710.817 246 715 250.183 715 255.343Z" fill="#E7E6E1" fill-rule="evenodd"/><path d="M715 350.343 715 369.616C715 374.799 710.799 379 705.616 379L626.343 379C621.183 379 617 374.817 617 369.657L617 350.384C617 345.201 621.201 341 626.384 341L705.657 341C710.817 341 715 345.183 715 350.343Z" fill="#E7E6E1" fill-rule="evenodd"/><rect x="617" y="246" width="14" height="38" fill="#E7E6E1"/><rect x="617" y="341" width="14" height="38" fill="#E7E6E1"/><path d="M884.757 343.372C886.602 341.527 889.593 341.527 891.438 343.372L904.801 356.735C906.646 358.58 906.646 361.571 904.801 363.416L777.856 490.361C776.011 492.206 773.019 492.206 771.174 490.361L757.812 476.999C755.967 475.154 755.967 472.162 757.812 470.317Z" fill="#E8E8E8" fill-rule="evenodd"/><path d="M904.889 356.584C906.734 358.429 906.734 361.42 904.889 363.265L891.526 376.628C889.681 378.473 886.69 378.473 884.845 376.628L757.9 249.683C756.055 247.838 756.055 244.846 757.9 243.001L771.262 229.639C773.107 227.794 776.099 227.794 777.944 229.639Z" fill="#E8E8E8" fill-rule="evenodd"/><path d="M0 4.72441C-7.5185e-16 2.11519 2.11519 0 4.72441 0L23.622 0C26.2313 -7.5185e-16 28.3465 2.11519 28.3465 4.72441L28.3465 184.252C28.3465 186.861 26.2313 188.976 23.622 188.976L4.72441 188.976C2.11519 188.976 0 186.861 0 184.252Z" fill="#E8E8E8" fill-rule="evenodd" transform="matrix(-0.707107 0.707107 0.707107 0.707107 391.815 340.032)"/><path d="M0 4.72441C-7.5185e-16 2.11519 2.11519 0 4.72441 0L23.622 0C26.2313 -7.5185e-16 28.3465 2.11519 28.3465 4.72441L28.3465 184.252C28.3465 186.861 26.2313 188.976 23.622 188.976L4.72441 188.976C2.11519 188.976 0 186.861 0 184.252Z" fill="#E8E8E8" fill-rule="evenodd" transform="matrix(0.707107 0.707107 0.707107 -0.707107 371.859 359.924)"/></g></svg>