<svg width="270" height="270" xmlns="http://www.w3.org/2000/svg" xmlns:xlink="http://www.w3.org/1999/xlink" overflow="hidden"><defs><clipPath id="clip0"><rect x="505" y="225" width="270" height="270"/></clipPath></defs><g clip-path="url(#clip0)" transform="translate(-505 -225)"><path d="M506 235.466C506 230.238 510.238 226 515.466 226L764.534 226C769.762 226 774 230.238 774 235.466L774 484.534C774 489.762 769.762 494 764.534 494L515.466 494C510.238 494 506 489.762 506 484.534Z" fill="#222831" fill-rule="evenodd"/><rect x="587" y="246" width="14" height="38" fill="#00ADB5"/><path d="M572.343 246 591.616 246C596.799 246 601 250.201 601 255.384L601 463.657C601 468.817 596.817 473 591.657 473L572.384 473C567.201 473 563 468.799 563 463.616L563 255.343C563 250.183 567.183 246 572.343 246Z" fill="#00ADB5" fill-rule="evenodd"/><path d="M715 445.343 715 464.616C715 469.799 710.799 474 705.616 474L573.343 474C568.183 474 564 469.817 564 464.657L564 445.384C564 440.201 568.201 436 573.384 436L705.657 436C710.817 436 715 440.183 715 445.343Z" fill="#00ADB5" fill-rule="evenodd"/><path d="M715 255.343 715 274.616C715 279.799 710.799 284 705.616 284L633.343 284C628.183 284 624 279.817 624 274.657L624 255.384C624 250.201 628.201 246 633.384 246L705.656 246C710.817 246 715 250.183 715 255.343Z" fill="#E7E6E1" fill-rule="evenodd"/><path d="M715 350.343 715 369.616C715 374.799 710.799 379 705.616 379L632.343 379C627.183 379 623 374.817 623 369.657L623 350.384C623 345.201 627.201 341 632.384 341L705.657 341C710.817 341 715 345.183 715 350.343Z" fill="#E7E6E1" fill-rule="evenodd"/><rect x="623" y="246" width="14" height="38" fill="#E7E6E1"/><rect x="623" y="341" width="14" height="38" fill="#E7E6E1"/></g></svg>